<svg width="83" height="83" viewBox="0 0 83 83" fill="none" xmlns="http://www.w3.org/2000/svg">
<path d="M41.5 1.29688C19.291 1.29688 1.29688 19.291 1.29688 41.5C1.29688 63.709 19.291 81.7031 41.5 81.7031C63.709 81.7031 81.7031 63.709 81.7031 41.5C81.7031 19.291 63.709 1.29688 41.5 1.29688ZM41.5 16.8594C49.3785 16.8594 55.7656 23.2465 55.7656 31.125C55.7656 39.0035 49.3785 45.3906 41.5 45.3906C33.6215 45.3906 27.2344 39.0035 27.2344 31.125C27.2344 23.2465 33.6215 16.8594 41.5 16.8594ZM41.5 72.625C31.9842 72.625 23.4572 68.3129 17.751 61.5691C20.7986 55.8305 26.7643 51.875 33.7188 51.875C34.1078 51.875 34.4969 51.9398 34.8697 52.0533C36.9771 52.7342 39.1818 53.1719 41.5 53.1719C43.8182 53.1719 46.0391 52.7342 48.1303 52.0533C48.5031 51.9398 48.8922 51.875 49.2812 51.875C56.2357 51.875 62.2014 55.8305 65.249 61.5691C59.5428 68.3129 51.0158 72.625 41.5 72.625Z" fill="white"/>
</svg>
